<?xml version="1.0" encoding="UTF-8" standalone="no"?>
<!DOCTYPE svg PUBLIC "-//W3C//DTD SVG 1.1//EN" "http://www.w3.org/Graphics/SVG/1.1/DTD/svg11.dtd">
<svg width="100%" height="100%" viewBox="0 0 1512 512" version="1.1" xmlns="http://www.w3.org/2000/svg" xmlns:xlink="http://www.w3.org/1999/xlink" xml:space="preserve" xmlns:serif="http://www.serif.com/" style="fill-rule:evenodd;clip-rule:evenodd;stroke-linejoin:round;stroke-miterlimit:2;">
    <g transform="matrix(1,0,0,1,-1612,0)">
        <g id="Vector" transform="matrix(1,0,0,1,1612,0)">
            <rect x="0" y="0" width="1512" height="512" style="fill:none;"/>
            <g transform="matrix(0.8972,0,0,0.8972,70.3396,129.665)">
                <g transform="matrix(250,0,0,250,559.679,420.402)">
                    <path d="M0.502,-0.217L0.556,-0.528L0.713,-0.528L0.589,0L0.45,0L0.362,-0.313L0.274,0L0.135,0L0.011,-0.528L0.168,-0.528L0.221,-0.209L0.305,-0.528L0.419,-0.528L0.502,-0.217Z" style="fill:rgb(152,7,7);fill-rule:nonzero;"/>
                </g>
                <g transform="matrix(250,0,0,250,741.198,420.402)">
                    <path d="M0.302,0.01C0.259,0.01 0.22,0.003 0.187,-0.011C0.153,-0.024 0.124,-0.043 0.101,-0.066C0.078,-0.09 0.06,-0.117 0.048,-0.148C0.036,-0.179 0.03,-0.212 0.03,-0.247L0.03,-0.265C0.03,-0.304 0.035,-0.339 0.046,-0.373C0.056,-0.406 0.072,-0.435 0.094,-0.459C0.115,-0.484 0.141,-0.503 0.173,-0.517C0.205,-0.531 0.242,-0.538 0.284,-0.538C0.322,-0.538 0.355,-0.532 0.385,-0.52C0.415,-0.508 0.44,-0.491 0.461,-0.468C0.481,-0.446 0.497,-0.419 0.508,-0.387C0.519,-0.355 0.524,-0.319 0.524,-0.279L0.524,-0.212L0.197,-0.212C0.203,-0.183 0.216,-0.16 0.236,-0.143C0.256,-0.126 0.281,-0.117 0.313,-0.117C0.335,-0.117 0.358,-0.121 0.379,-0.13C0.401,-0.138 0.419,-0.152 0.435,-0.172L0.51,-0.083C0.502,-0.071 0.491,-0.06 0.478,-0.049C0.465,-0.038 0.449,-0.028 0.432,-0.019C0.414,-0.011 0.394,-0.004 0.373,0.002C0.351,0.007 0.327,0.01 0.302,0.01ZM0.283,-0.411C0.269,-0.411 0.257,-0.409 0.247,-0.404C0.237,-0.399 0.229,-0.392 0.222,-0.384C0.215,-0.375 0.21,-0.365 0.206,-0.354C0.202,-0.342 0.199,-0.329 0.197,-0.315L0.363,-0.315L0.363,-0.328C0.364,-0.354 0.357,-0.375 0.343,-0.389C0.329,-0.404 0.309,-0.411 0.283,-0.411Z" style="fill:rgb(152,7,7);fill-rule:nonzero;"/>
                </g>
                <g transform="matrix(250,0,0,250,877.306,420.402)">
                    <path d="M0.537,-0.26C0.537,-0.22 0.533,-0.183 0.524,-0.15C0.516,-0.117 0.504,-0.089 0.487,-0.065C0.47,-0.042 0.449,-0.023 0.423,-0.01C0.397,0.003 0.367,0.01 0.332,0.01C0.303,0.01 0.278,0.004 0.257,-0.007C0.236,-0.018 0.217,-0.034 0.202,-0.054L0.195,0L0.047,0L0.047,-0.75L0.212,-0.75L0.212,-0.486C0.227,-0.502 0.244,-0.515 0.263,-0.524C0.283,-0.534 0.305,-0.538 0.331,-0.538C0.366,-0.538 0.397,-0.531 0.423,-0.518C0.448,-0.505 0.47,-0.486 0.487,-0.462C0.504,-0.438 0.516,-0.41 0.524,-0.377C0.533,-0.344 0.537,-0.309 0.537,-0.27L0.537,-0.26ZM0.372,-0.27C0.372,-0.289 0.371,-0.307 0.368,-0.324C0.366,-0.342 0.362,-0.357 0.356,-0.369C0.35,-0.382 0.342,-0.392 0.331,-0.4C0.32,-0.407 0.306,-0.411 0.289,-0.411C0.27,-0.411 0.253,-0.407 0.241,-0.4C0.228,-0.393 0.219,-0.382 0.212,-0.369L0.212,-0.159C0.219,-0.145 0.228,-0.135 0.241,-0.127C0.253,-0.12 0.27,-0.117 0.29,-0.117C0.308,-0.117 0.322,-0.12 0.333,-0.127C0.344,-0.134 0.352,-0.144 0.358,-0.156C0.363,-0.169 0.367,-0.184 0.369,-0.202C0.371,-0.219 0.372,-0.239 0.372,-0.26L0.372,-0.27Z" style="fill:rgb(152,7,7);fill-rule:nonzero;"/>
                </g>
                <g transform="matrix(250,0,0,250,1080.31,420.402)">
                    <path d="M0.27,-0.117C0.293,-0.117 0.311,-0.123 0.323,-0.136C0.336,-0.149 0.342,-0.166 0.342,-0.188L0.496,-0.188C0.496,-0.159 0.49,-0.131 0.479,-0.107C0.468,-0.083 0.452,-0.062 0.433,-0.045C0.413,-0.027 0.389,-0.014 0.362,-0.004C0.334,0.005 0.305,0.01 0.273,0.01C0.232,0.01 0.196,0.003 0.165,-0.011C0.134,-0.024 0.108,-0.043 0.088,-0.067C0.067,-0.091 0.051,-0.119 0.041,-0.152C0.031,-0.185 0.025,-0.22 0.025,-0.258L0.025,-0.27C0.025,-0.308 0.031,-0.343 0.041,-0.376C0.051,-0.409 0.067,-0.437 0.087,-0.461C0.108,-0.485 0.134,-0.504 0.164,-0.518C0.195,-0.531 0.231,-0.538 0.272,-0.538C0.305,-0.538 0.336,-0.533 0.363,-0.524C0.391,-0.514 0.414,-0.501 0.434,-0.483C0.454,-0.465 0.469,-0.442 0.48,-0.416C0.491,-0.39 0.496,-0.36 0.496,-0.326L0.342,-0.326C0.342,-0.338 0.34,-0.349 0.338,-0.359C0.335,-0.37 0.33,-0.379 0.324,-0.386C0.318,-0.394 0.31,-0.4 0.301,-0.405C0.292,-0.409 0.281,-0.411 0.268,-0.411C0.251,-0.411 0.238,-0.407 0.227,-0.4C0.217,-0.392 0.209,-0.382 0.204,-0.369C0.198,-0.356 0.194,-0.341 0.193,-0.324C0.191,-0.306 0.19,-0.288 0.19,-0.27L0.19,-0.258C0.19,-0.239 0.191,-0.22 0.193,-0.203C0.194,-0.186 0.198,-0.171 0.204,-0.158C0.209,-0.146 0.217,-0.135 0.228,-0.128C0.238,-0.121 0.252,-0.117 0.27,-0.117Z" style="fill:rgb(152,7,7);fill-rule:nonzero;"/>
                </g>
                <g transform="matrix(250,0,0,250,1210.19,420.402)">
                    <path d="M0.207,-0.472C0.224,-0.493 0.243,-0.509 0.266,-0.521C0.288,-0.532 0.314,-0.538 0.342,-0.538C0.368,-0.538 0.392,-0.534 0.414,-0.527C0.435,-0.519 0.454,-0.507 0.47,-0.491C0.485,-0.474 0.497,-0.452 0.506,-0.426C0.515,-0.399 0.519,-0.367 0.519,-0.328L0.519,0L0.354,0L0.354,-0.329C0.354,-0.345 0.352,-0.358 0.349,-0.369C0.345,-0.379 0.34,-0.388 0.334,-0.394C0.327,-0.401 0.32,-0.405 0.31,-0.407C0.301,-0.41 0.291,-0.411 0.279,-0.411C0.261,-0.411 0.246,-0.408 0.234,-0.403C0.223,-0.397 0.214,-0.389 0.207,-0.379L0.207,0L0.042,0L0.042,-0.75L0.207,-0.75L0.207,-0.472Z" style="fill:rgb(152,7,7);fill-rule:nonzero;"/>
                </g>
                <g transform="matrix(250,0,0,250,1351.31,420.402)">
                    <path d="M0.344,0C0.34,-0.007 0.337,-0.014 0.335,-0.022C0.332,-0.03 0.33,-0.038 0.328,-0.047C0.315,-0.031 0.299,-0.018 0.279,-0.007C0.259,0.004 0.233,0.01 0.201,0.01C0.177,0.01 0.154,0.006 0.132,-0.002C0.11,-0.01 0.091,-0.021 0.075,-0.034C0.059,-0.048 0.046,-0.065 0.036,-0.084C0.027,-0.104 0.022,-0.125 0.022,-0.149C0.022,-0.176 0.027,-0.201 0.037,-0.222C0.047,-0.244 0.062,-0.262 0.082,-0.277C0.103,-0.291 0.128,-0.303 0.159,-0.311C0.191,-0.319 0.227,-0.323 0.27,-0.323L0.321,-0.323L0.321,-0.351C0.321,-0.373 0.316,-0.391 0.306,-0.404C0.296,-0.417 0.28,-0.423 0.258,-0.423C0.239,-0.423 0.224,-0.419 0.214,-0.409C0.204,-0.4 0.199,-0.385 0.199,-0.366L0.035,-0.366C0.035,-0.39 0.04,-0.413 0.051,-0.434C0.062,-0.455 0.077,-0.473 0.098,-0.489C0.118,-0.504 0.142,-0.516 0.171,-0.525C0.199,-0.534 0.231,-0.538 0.266,-0.538C0.298,-0.538 0.327,-0.534 0.354,-0.526C0.381,-0.519 0.404,-0.507 0.423,-0.491C0.443,-0.475 0.458,-0.455 0.469,-0.432C0.48,-0.408 0.486,-0.381 0.486,-0.35L0.486,-0.133C0.486,-0.116 0.486,-0.101 0.487,-0.088C0.488,-0.076 0.49,-0.065 0.492,-0.055C0.494,-0.045 0.496,-0.037 0.499,-0.029C0.502,-0.022 0.505,-0.015 0.508,-0.008L0.508,0L0.344,0ZM0.241,-0.107C0.261,-0.107 0.278,-0.112 0.292,-0.121C0.305,-0.129 0.315,-0.139 0.321,-0.15L0.321,-0.235L0.269,-0.235C0.254,-0.235 0.241,-0.233 0.23,-0.229C0.22,-0.224 0.211,-0.219 0.205,-0.211C0.198,-0.204 0.194,-0.196 0.191,-0.187C0.188,-0.177 0.187,-0.168 0.187,-0.158C0.187,-0.143 0.192,-0.131 0.202,-0.121C0.212,-0.112 0.225,-0.107 0.241,-0.107Z" style="fill:rgb(152,7,7);fill-rule:nonzero;"/>
                </g>
                <g transform="matrix(250,0,0,250,1484,420.402)">
                    <path d="M0.238,-0.66L0.238,-0.528L0.325,-0.528L0.325,-0.414L0.238,-0.414L0.238,-0.172C0.238,-0.162 0.239,-0.153 0.24,-0.146C0.242,-0.14 0.245,-0.134 0.249,-0.13C0.253,-0.126 0.259,-0.123 0.266,-0.122C0.272,-0.12 0.281,-0.119 0.291,-0.119C0.3,-0.119 0.308,-0.119 0.314,-0.12C0.321,-0.12 0.326,-0.121 0.332,-0.122L0.332,-0.004C0.318,0 0.303,0.004 0.288,0.006C0.273,0.009 0.257,0.01 0.239,0.01C0.213,0.01 0.189,0.007 0.169,0.001C0.148,-0.005 0.131,-0.015 0.116,-0.028C0.102,-0.041 0.092,-0.058 0.084,-0.078C0.077,-0.099 0.073,-0.123 0.073,-0.152L0.073,-0.414L0.006,-0.414L0.006,-0.528L0.073,-0.528L0.073,-0.66L0.238,-0.66Z" style="fill:rgb(152,7,7);fill-rule:nonzero;"/>
                </g>
            </g>
            <g id="Planet" transform="matrix(1.00032,0,0,0.964776,25.1174,36.9984)">
                <g>
                    <g transform="matrix(0.999685,0,0,1.03651,-25.1094,-79.8096)">
                        <path d="M160.758,289.78L160.758,276.746C160.758,269.67 166.726,263.914 174.062,263.914L298.831,263.914C306.167,263.914 312.135,269.67 312.135,276.746L312.135,306.461C313.552,307.644 314.91,308.802 316.209,309.928C342.057,332.33 417.908,323.528 455.403,318.53C474.691,313.629 506.66,341.311 499.097,361.163L449.128,349.99C403.474,349.861 368.444,354.361 331.889,380.74C326.8,384.439 319.953,387.476 312.135,389.935L312.135,397.081C312.135,404.157 306.167,409.913 298.831,409.913L174.062,409.913C166.726,409.913 160.758,404.157 160.758,397.081L160.758,373.95C129.622,354.566 51.152,320.606 49.675,299.418C49.675,299.418 122.803,319.947 152.373,295.673C154.887,293.608 157.7,291.64 160.758,289.78ZM312.135,306.461C293.034,290.496 263.824,270.31 235.622,270.31C210.275,270.31 180.457,277.793 160.758,289.78L160.758,373.95C162.651,375.129 164.564,376.413 166.497,377.809C184.803,391.104 218.531,398.798 245.53,398.798C265.022,398.798 291.843,396.32 312.135,389.935L312.135,306.461Z" style="fill:rgb(152,7,7);fill-rule:nonzero;"/>
                    </g>
                    <g transform="matrix(1,0,0,1,0,41.4604)">
                        <path d="M427.25,99.49C447.44,121.545 390.241,146.854 377.461,146.854C273.461,146.854 293.028,119.542 189.028,119.542C136.838,119.542 92.726,86.515 125.39,64.23C218.97,67.46 236.447,120.458 335.847,120.458C372.257,120.458 411.09,102.04 427.25,99.49Z" style="fill:rgb(152,7,7);fill-rule:nonzero;"/>
                    </g>
                    <path d="M352.55,467.01C277.639,501.22 189.928,493.128 122.54,445.79C154.962,453.332 209.048,470.782 237.258,470.782C301.648,470.782 316.494,469.959 352.55,467.01Z" style="fill:rgb(152,7,7);fill-rule:nonzero;"/>
                </g>
                <g>
                    <g transform="matrix(0.506431,0,0,0.525086,382.785,-24.4041)">
                        <g>
                            <path d="M187.466,0L186.866,0C85.666,0 3.366,82.3 3.366,183.5C3.366,224.8 17.466,264.9 43.266,297.2L16.566,359.3C14.366,364.4 16.766,370.3 21.766,372.4C23.566,373.2 25.566,373.4 27.466,373.1L125.366,355.9C144.966,363 165.566,366.6 186.366,366.5C287.566,366.5 369.866,284.2 369.866,183C370.066,82.1 288.366,0.1 187.466,0ZM124.666,146.6L178.666,146.6C184.166,146.6 188.666,151.1 188.666,156.6C188.666,162.1 184.166,166.6 178.666,166.6L124.666,166.6C119.166,166.6 114.666,162.1 114.666,156.6C114.666,151.1 119.166,146.6 124.666,146.6ZM248.666,216.6L124.666,216.6C119.166,216.6 114.666,212.1 114.666,206.6C114.666,201.1 119.166,196.6 124.666,196.6L248.666,196.6C254.166,196.6 258.666,201.1 258.666,206.6C258.666,212.1 254.166,216.6 248.666,216.6Z" style="fill:rgb(239,1,1);fill-rule:nonzero;"/>
                        </g>
                    </g>
                    <g transform="matrix(-0.341262,0,0,0.353833,153.956,-40.6183)">
                        <g>
                            <path d="M255,16C114.39,16 0,116.928 0,241C0,293.412 20.742,344.198 58.491,384.452C65.962,415.258 56.894,447.894 34.394,470.394C24.986,479.803 31.639,496 45,496C87.744,496 128.95,479.257 159.565,449.726C189.858,460.536 221.909,466 255,466C395.61,466 512,365.072 512,241C512,116.928 395.61,16 255,16ZM137,286C112.186,286 92,265.814 92,241C92,216.186 112.186,196 137,196C161.814,196 182,216.186 182,241C182,265.814 161.814,286 137,286ZM257,286C232.186,286 212,265.814 212,241C212,216.186 232.186,196 257,196C281.814,196 302,216.186 302,241C302,265.814 281.814,286 257,286ZM377,286C352.186,286 332,265.814 332,241C332,216.186 352.186,196 377,196C401.814,196 422,216.186 422,241C422,265.814 401.814,286 377,286Z" style="fill:rgb(239,1,1);fill-rule:nonzero;"/>
                        </g>
                    </g>
                    <g transform="matrix(1.93438,0,0,1.93438,-185.712,-321.373)">
                        <g transform="matrix(0.167472,0,0,0.167472,162.601,262.283)">
                            <path d="M467,0L45,0C20.187,0 0,20.187 0,45L0,467C0,491.813 20.187,512 45,512L467,512C491.813,512 512,491.813 512,467L512,45C512,20.187 491.813,0 467,0ZM256,431C159.505,431 81,352.495 81,256C81,159.505 159.505,81 256,81C352.495,81 431,159.505 431,256C431,352.495 352.495,431 256,431Z" style="fill:rgb(239,1,1);fill-rule:nonzero;"/>
                        </g>
                        <g transform="matrix(0.167472,0,0,0.167472,162.601,262.283)">
                            <path d="M187,216C164.944,216 147,233.944 147,256C147,278.056 164.944,296 187,296C209.056,296 227,278.056 227,256C227,233.944 209.056,216 187,216Z" style="fill:rgb(239,1,1);fill-rule:nonzero;"/>
                        </g>
                        <g transform="matrix(0.167472,0,0,0.167472,162.601,262.283)">
                            <path d="M325,216C302.944,216 285,233.944 285,256C285,278.056 302.944,296 325,296C347.056,296 365,278.056 365,256C365,233.944 347.056,216 325,216Z" style="fill:rgb(239,1,1);fill-rule:nonzero;"/>
                        </g>
                    </g>
                </g>
                <g transform="matrix(0.304996,-0.108175,0.104332,0.316231,149.468,356.341)">
                    <path d="M406,92L361,92L361,15C361,6.716 354.284,0 346,0C337.716,0 331,6.716 331,15L331,92L181,92L181,15C181,6.716 174.284,0 166,0C157.716,0 151,6.716 151,15L151,92L106,92C97.72,92 91,98.72 91,107L91,167C91,175.28 97.72,182 106,182L121,182L121,257C121,326.63 173.98,384.11 241.75,391.25L241.752,391.25C248.894,459.016 306.373,512 376,512C384.284,512 391,505.284 391,497C391,488.716 366.819,493.632 358.535,493.632C305.405,493.632 278.837,442.333 271.944,391.061L271.95,391.061C338.9,383.15 391,326.04 391,257L391,182L406,182C414.28,182 421,175.28 421,167L421,107C421,98.72 414.28,92 406,92ZM296.61,267.61L266.61,297.61C252.7,311.52 231.34,290.45 245.39,276.39L260.68,261.11L219.29,240.42C210.15,235.84 208.16,223.63 215.39,216.39L245.39,186.39C259.41,172.37 280.65,193.56 266.61,207.61L251.32,222.89L292.71,243.58C301.85,248.16 303.84,260.37 296.61,267.61Z" style="fill:rgb(152,7,7);fill-rule:nonzero;"/>
                </g>
            </g>
            <g transform="matrix(1.33879,0,0,1.33879,-356.349,-200.252)">
                <g transform="matrix(250,0,0,250,684.191,420.402)">
                    <path d="M0.537,-0.26C0.537,-0.222 0.532,-0.186 0.523,-0.153C0.515,-0.12 0.502,-0.092 0.484,-0.068C0.467,-0.043 0.445,-0.024 0.42,-0.011C0.394,0.003 0.365,0.01 0.332,0.01C0.306,0.01 0.283,0.005 0.263,-0.004C0.244,-0.014 0.227,-0.027 0.212,-0.043L0.212,0.203L0.047,0.203L0.047,-0.528L0.201,-0.528L0.206,-0.479C0.221,-0.498 0.239,-0.512 0.259,-0.523C0.279,-0.533 0.303,-0.538 0.331,-0.538C0.364,-0.538 0.394,-0.532 0.419,-0.519C0.445,-0.506 0.467,-0.488 0.484,-0.464C0.501,-0.441 0.514,-0.413 0.523,-0.38C0.532,-0.347 0.537,-0.311 0.537,-0.271L0.537,-0.26ZM0.372,-0.271C0.372,-0.291 0.371,-0.31 0.368,-0.327C0.365,-0.344 0.36,-0.359 0.354,-0.372C0.347,-0.384 0.339,-0.394 0.328,-0.401C0.318,-0.408 0.305,-0.411 0.29,-0.411C0.27,-0.411 0.253,-0.408 0.241,-0.401C0.228,-0.394 0.218,-0.383 0.212,-0.369L0.212,-0.161C0.219,-0.147 0.229,-0.136 0.241,-0.129C0.254,-0.121 0.271,-0.117 0.291,-0.117C0.307,-0.117 0.32,-0.121 0.33,-0.128C0.34,-0.136 0.348,-0.146 0.355,-0.159C0.361,-0.172 0.366,-0.187 0.368,-0.204C0.371,-0.222 0.372,-0.24 0.372,-0.26L0.372,-0.271Z" style="fill:rgb(239,1,1);fill-rule:nonzero;"/>
                </g>
                <g transform="matrix(250,0,0,250,824.938,420.402)">
                    <rect x="0.055" y="-0.75" width="0.165" height="0.75" style="fill:rgb(239,1,1);fill-rule:nonzero;"/>
                </g>
                <g transform="matrix(250,0,0,250,893.664,420.402)">
                    <path d="M0.361,-0.057C0.344,-0.036 0.324,-0.02 0.301,-0.008C0.277,0.004 0.25,0.01 0.22,0.01C0.194,0.01 0.17,0.006 0.148,-0.001C0.127,-0.009 0.108,-0.02 0.093,-0.036C0.077,-0.052 0.065,-0.072 0.056,-0.097C0.048,-0.122 0.043,-0.152 0.043,-0.187L0.043,-0.528L0.208,-0.528L0.208,-0.186C0.208,-0.162 0.214,-0.145 0.225,-0.134C0.236,-0.123 0.252,-0.117 0.274,-0.117C0.294,-0.117 0.311,-0.121 0.324,-0.128C0.337,-0.135 0.347,-0.145 0.354,-0.158L0.354,-0.528L0.52,-0.528L0.52,0L0.366,0L0.361,-0.057Z" style="fill:rgb(239,1,1);fill-rule:nonzero;"/>
                </g>
                <g transform="matrix(250,0,0,250,1034.65,420.402)">
                    <path d="M0.197,-0.528L0.203,-0.466C0.221,-0.49 0.242,-0.508 0.268,-0.52C0.293,-0.532 0.322,-0.538 0.354,-0.538C0.378,-0.538 0.4,-0.535 0.421,-0.528C0.441,-0.521 0.458,-0.509 0.473,-0.493C0.488,-0.477 0.499,-0.456 0.507,-0.429C0.515,-0.403 0.519,-0.371 0.519,-0.333L0.519,0L0.354,0L0.354,-0.333C0.354,-0.349 0.352,-0.362 0.349,-0.372C0.345,-0.382 0.341,-0.39 0.334,-0.396C0.328,-0.402 0.32,-0.406 0.311,-0.408C0.302,-0.41 0.291,-0.411 0.279,-0.411C0.262,-0.411 0.247,-0.408 0.236,-0.401C0.224,-0.394 0.215,-0.385 0.208,-0.373L0.208,0L0.043,0L0.043,-0.528L0.197,-0.528Z" style="fill:rgb(239,1,1);fill-rule:nonzero;"/>
                </g>
                <g transform="matrix(250,0,0,250,1175.65,420.402)">
                    <path d="M0.238,-0.66L0.238,-0.528L0.325,-0.528L0.325,-0.414L0.238,-0.414L0.238,-0.172C0.238,-0.162 0.239,-0.153 0.24,-0.146C0.242,-0.14 0.245,-0.134 0.249,-0.13C0.253,-0.126 0.259,-0.123 0.266,-0.122C0.272,-0.12 0.281,-0.119 0.291,-0.119C0.3,-0.119 0.308,-0.119 0.314,-0.12C0.321,-0.12 0.326,-0.121 0.332,-0.122L0.332,-0.004C0.318,0 0.303,0.004 0.288,0.006C0.273,0.009 0.257,0.01 0.239,0.01C0.213,0.01 0.189,0.007 0.169,0.001C0.148,-0.005 0.131,-0.015 0.116,-0.028C0.102,-0.041 0.092,-0.058 0.084,-0.078C0.077,-0.099 0.073,-0.123 0.073,-0.152L0.073,-0.414L0.006,-0.414L0.006,-0.528L0.073,-0.528L0.073,-0.66L0.238,-0.66Z" style="fill:rgb(239,1,1);fill-rule:nonzero;"/>
                </g>
                <g transform="matrix(250,0,0,250,1257.8,420.402)">
                    <path d="M0.025,-0.269C0.025,-0.307 0.031,-0.343 0.042,-0.376C0.053,-0.409 0.069,-0.437 0.091,-0.461C0.112,-0.486 0.139,-0.504 0.171,-0.518C0.202,-0.531 0.239,-0.538 0.28,-0.538C0.321,-0.538 0.358,-0.531 0.39,-0.518C0.422,-0.504 0.448,-0.486 0.47,-0.461C0.491,-0.437 0.507,-0.409 0.519,-0.376C0.53,-0.343 0.535,-0.307 0.535,-0.269L0.535,-0.259C0.535,-0.22 0.53,-0.184 0.519,-0.152C0.508,-0.119 0.492,-0.091 0.47,-0.067C0.449,-0.043 0.422,-0.024 0.39,-0.01C0.359,0.003 0.322,0.01 0.281,0.01C0.239,0.01 0.203,0.003 0.171,-0.01C0.139,-0.024 0.113,-0.043 0.091,-0.067C0.069,-0.091 0.053,-0.119 0.042,-0.152C0.031,-0.184 0.025,-0.22 0.025,-0.259L0.025,-0.269ZM0.19,-0.259C0.19,-0.239 0.191,-0.22 0.194,-0.203C0.197,-0.186 0.202,-0.171 0.209,-0.158C0.216,-0.146 0.225,-0.135 0.237,-0.128C0.249,-0.121 0.263,-0.117 0.281,-0.117C0.298,-0.117 0.312,-0.121 0.324,-0.128C0.336,-0.135 0.345,-0.146 0.352,-0.158C0.358,-0.171 0.363,-0.186 0.366,-0.203C0.369,-0.22 0.371,-0.239 0.371,-0.259L0.371,-0.269C0.371,-0.288 0.369,-0.306 0.366,-0.324C0.364,-0.341 0.359,-0.356 0.352,-0.369C0.345,-0.382 0.335,-0.392 0.324,-0.4C0.312,-0.407 0.297,-0.411 0.28,-0.411C0.263,-0.411 0.248,-0.407 0.237,-0.4C0.225,-0.392 0.216,-0.382 0.209,-0.369C0.202,-0.356 0.197,-0.341 0.194,-0.324C0.191,-0.306 0.19,-0.288 0.19,-0.269L0.19,-0.259Z" style="fill:rgb(239,1,1);fill-rule:nonzero;"/>
                </g>
            </g>
        </g>
    </g>
</svg>
